# xmcd
# 
# Track frame offsets:
#     183
#     26898
#     77918
#     99078
#     133240
#     187633
#     216653
#     234145
#     259718
#     278783
# 
# Disc length: 4511
# 
# Revision: 6
# Processed by: cddbd v1.5.2PL0 Copyright (c) Steve Scherf et al.
# Submitted via: BonkEnc v1.0.8
# 
DISCID=84119d0a
DTITLE=Dizzy Gillespie - Gillespiana and Carnegie Hall Concert
DYEAR=1993
DGENRE=Jazz
TTITLE0=Prelude
TTITLE1=Blues
TTITLE2=Panamerica
TTITLE3=Africana
TTITLE4=Toccata
TTITLE5=Manteca
TTITLE6=This is the Way
TTITLE7=Ool Ya Koo
TTITLE8=Kush
TTITLE9=Tunisian Fantasy
EXTD=
EXTT0=
EXTT1=
EXTT2=
EXTT3=
EXTT4=
EXTT5=
EXTT6=
EXTT7=
EXTT8=
EXTT9=
PLAYORDER=
